<?xml version="1.0" encoding="utf-8"?>
<!-- Generator: Adobe Illustrator 21.1.0, SVG Export Plug-In . SVG Version: 6.00 Build 0)  -->
<svg version="1.1" id="Layer_1" xmlns="http://www.w3.org/2000/svg" xmlns:xlink="http://www.w3.org/1999/xlink" x="0px" y="0px"
	 viewBox="0 0 508 508" style="enable-background:new 0 0 508 508;" xml:space="preserve">
<style type="text/css">
	.st0{fill:#C0CEB2;stroke:#C0CEB2;stroke-miterlimit:10;}
	.st1{fill:#FFFFFF;}
	.st2{fill:#324A5E;}
</style>
<circle class="st0" cx="254" cy="254" r="254"/>
<path class="st1" d="M254,65.6C150,65.6,65.6,150,65.6,254S150,442.4,254,442.4S442.4,358,442.4,254S358,65.6,254,65.6z M254,391.6
	c-76,0-137.6-61.6-137.6-137.6S178,116.4,254,116.4S391.6,178,391.6,254S330,391.6,254,391.6z"/>
<polygon class="st2" points="355.6,187.6 241.6,206.8 332.8,93.6 237.2,96.4 169.6,256.8 245.6,246 188,350.4 167.2,329.6 
	175.2,399.2 235.6,363.2 210.8,360 "/>
</svg>
