<?xml version="1.0" encoding="utf-8"?>
<!-- Generator: Adobe Illustrator 21.1.0, SVG Export Plug-In . SVG Version: 6.00 Build 0)  -->
<svg version="1.1" id="Layer_1" xmlns="http://www.w3.org/2000/svg" xmlns:xlink="http://www.w3.org/1999/xlink" x="0px" y="0px"
	 viewBox="0 0 508 508" style="enable-background:new 0 0 508 508;" xml:space="preserve">
<style type="text/css">
	.st0{fill:#C0CEB2;stroke:#728163;stroke-miterlimit:10;}
	.st1{fill:#728163;}
	.st2{fill:#2B3B4E;}
	.st3{fill:#324A5E;}
</style>
<circle class="st0" cx="254" cy="254" r="254"/>
<path class="st1" d="M58.4,416c46.4,56,116.8,92,195.6,92s148.8-35.6,195.6-92H58.4z"/>
<path class="st2" d="M425.2,416H202.8l0,0c0-19.2,15.6-34.8,34.8-34.8h152.8C409.6,381.2,425.2,396.8,425.2,416L425.2,416z"/>
<path class="st3" d="M392.4,381.2H236c-9.2,0-16.4-7.6-16.4-16.4l0,0c0-9.2,7.6-16.4,16.4-16.4h156.4c9.2,0,16.4,7.6,16.4,16.4l0,0
	C408.8,374,401.2,381.2,392.4,381.2z"/>
<g>
	<path class="st2" d="M253.6,230.8c-21.2,13.6-48,30-72,44c-70.4,40.4-92.4,48.4-101.2,46c-0.8,6-4.8,12-10.8,14.8
		c-10,5.2-22.4,0.8-27.2-9.2c-5.2-10-0.8-22.4,9.2-27.2c6-3.2,12.8-2.8,18.4,0c3.2-8.4,22.8-21.6,97.2-54
		c25.2-11.2,54.4-22.8,78-31.6L253.6,230.8z"/>
	
		<rect x="232.1" y="135.3" transform="matrix(0.8933 -0.4495 0.4495 0.8933 -39.0468 139.3272)" class="st2" width="83.6" height="33.2"/>
	<polygon class="st2" points="366,240.8 290.8,278.4 276,248.8 350.8,211.2 	"/>
</g>
<g>
	<path class="st3" d="M378,262l-77.2,38.8c-5.2,2.8-11.6,0.4-14.4-4.8l-1.6-2.8c-2.8-5.2-0.4-11.6,4.8-14.4l77.2-38.8
		c5.2-2.8,11.6-0.4,14.4,4.8l1.6,2.8C385.2,253.2,383.2,259.6,378,262z"/>
	<path class="st3" d="M305.2,117.6L228,156.4c-5.2,2.8-11.6,0.4-14.4-4.8l-1.6-2.8c-2.8-5.2-0.4-11.6,4.8-14.4L294,95.6
		c5.2-2.8,11.6-0.4,14.4,4.8l1.6,2.8C312.4,108.4,310.4,114.8,305.2,117.6z"/>
</g>
<path id="SVGCleanerId_0" class="st3" d="M351.2,211.2l-75.6,38c-5.6,2.8-12.4,0.4-15.2-5.2l-22-43.6c-2.8-5.6-0.4-12.4,5.2-15.2
	l75.6-38c5.6-2.8,12.4-0.4,15.2,5.2l22,43.6C359.2,201.6,356.8,208.4,351.2,211.2z"/>
<g>
	<path id="SVGCleanerId_0_1_" class="st3" d="M351.2,211.2l-75.6,38c-5.6,2.8-12.4,0.4-15.2-5.2l-22-43.6
		c-2.8-5.6-0.4-12.4,5.2-15.2l75.6-38c5.6-2.8,12.4-0.4,15.2,5.2l22,43.6C359.2,201.6,356.8,208.4,351.2,211.2z"/>
</g>
</svg>
